<svg viewBox="0 0 120 120" version="1.1" xmlns="http://www.w3.org/2000/svg" xmlns:xlink="http://www.w3.org/1999/xlink">
    <g id="tour-communicate-yammer" stroke="none" stroke-width="1" fill="none" fill-rule="evenodd">
                <path d="M102.353029,33.7359948 C104.715008,31.8545534 105.314644,28.4635836 103.654677,25.8820711 C102.192151,23.6068397 99.4352906,22.6734115 96.9563096,23.3807751 L96.2762352,23.7453955 C92.327416,25.9112407 65.6801986,44.5287589 68.6930014,46.6289725 C71.6765537,48.7146013 89.8996234,40.5325192 102.353029,33.7214099 L102.353029,33.7359948 Z M102.353029,89.7271051 C89.906936,82.9159958 71.6838664,74.7412062 68.700314,76.8195426 C65.6875112,78.9197561 92.3347286,97.5445667 96.2689226,99.7031196 L96.9563096,100.06774 C99.4426033,100.796981 102.184839,99.8489677 103.654677,97.5737364 C105.314644,94.9849315 104.715008,91.5939616 102.360342,89.7198127 L102.353029,89.7271051 Z M113.329284,55.605927 C113.087968,55.5840498 112.832026,55.5840498 112.561458,55.5840498 C108.064192,55.5840498 75.7204372,59.1281602 77.3438406,62.4170363 C78.9526189,65.6694504 98.8649056,67.2446106 113.06603,67.251903 C116.034957,66.7414344 118.184869,64.0578282 117.987429,60.9950167 C117.7973,58.2968257 115.837516,56.1455652 113.321972,55.5986346 L113.329284,55.605927 Z M27.6910947,83.579605 C23.9909048,94.0077488 20.5612822,98.8936623 12.6855815,98.8936623 C11.9177556,98.8936623 9.27058414,98.7478141 9.10239369,98.7259369 C6.55759906,98.5946735 4.18099487,100.242758 3.50092044,102.795101 C2.71115659,105.690187 4.41499897,108.672782 7.30348714,109.504116 C9.39489882,109.868737 11.5448115,110 13.4607201,110 C27.9835999,110 32.780684,101.657485 37.5777681,89.4864557 L65.9142027,19.0053301 C66.9379706,15.8112553 65.1536893,12.3984083 61.9653834,11.3847635 C58.8428911,10.392996 55.5302705,12.0410803 54.4114384,15.0674297 L34.491839,67.5435993 L34.1993339,67.5435993 L13.2486539,14.6736397 C11.830004,11.6837523 8.3272551,10.2252706 5.16819969,11.4139332 C1.92139274,12.6171805 0.254113493,16.1539985 1.32175722,19.413705 L27.6984074,83.5723126 L27.6910947,83.579605 Z" id="Shape" fill="#FFFFFF" fill-rule="nonzero"></path>
    </g>
</svg>
