<svg viewBox="0 0 120 120" version="1.1" xmlns="http://www.w3.org/2000/svg" xmlns:xlink="http://www.w3.org/1999/xlink">
    <g id="tour-communicate-fb" stroke="none" stroke-width="1" fill="none" fill-rule="evenodd">
        <g id="fb" fill-rule="nonzero">
                <path d="M113.377121,120 C117.034317,120 120,117.034339 120,113.377171 L120,6.62327883 C120,2.96476142 117.034317,0 113.377121,0 L6.62287883,0 C2.96433402,0 0,2.96476142 0,6.62327883 L0,113.377171 C0,117.034339 2.96433402,120 6.62287883,120 L113.377121,120 Z" id="Fill-1" fill="#3C5999"></path>
                <path d="M82.4012647,120 L82.4012647,73.9294257 L98.0276797,73.9294257 L100.36716,55.9745833 L82.4012647,55.9745833 L82.4012647,44.5112101 C82.4012647,39.3128642 83.8597241,35.7700368 91.3925453,35.7700368 L101,35.766025 L101,19.7074065 C99.3379509,19.4889886 93.6351857,19 87.0005015,19 C73.1487406,19 63.6660521,27.3671884 63.6660521,42.7335558 L63.6660521,55.9745833 L48,55.9745833 L48,73.9294257 L63.6660521,73.9294257 L63.6660521,120 L82.4012647,120 Z" id="Fill-4" fill="#FEFEFE"></path>
        </g>
    </g>
</svg>
