<svg viewBox="0 0 120 120" version="1.1" xmlns="http://www.w3.org/2000/svg" xmlns:xlink="http://www.w3.org/1999/xlink">
    <g id="tour-communicate-twitter" stroke="none" stroke-width="1" fill="none" fill-rule="evenodd">
                <path d="M41.76248,101 C79.87584,101 100.72224,69.449691 100.72224,42.0894051 C100.72224,41.193273 100.72224,40.3011775 100.66164,39.4131186 C104.717119,36.4821646 108.217876,32.8531062 111,28.695863 C107.218071,30.3702647 103.20615,31.4683369 99.09816,31.9534243 C103.423966,29.3658713 106.661539,25.2960991 108.20836,20.5015018 C104.140716,22.9132085 99.6906104,24.6128591 95.05008,25.5271075 C88.6268142,18.7027558 78.4203061,17.0324718 70.1537789,21.4528547 C61.8872522,25.8732377 57.616551,35.2849599 59.73644,44.410468 C43.0750588,43.5758926 27.5516822,35.7128328 17.0296,22.7781617 C11.5296359,32.238591 14.3389111,44.3412781 23.44512,50.4169752 C20.1474344,50.3193194 16.9216486,49.4304756 14.04,47.825458 L14.04,48.087839 C14.0426993,57.943649 20.995876,66.4324512 30.6646,68.3840204 C27.6138732,69.2153245 24.4130256,69.3368443 21.30796,68.7392439 C24.0226296,77.1734731 31.8021612,82.9513498 40.66764,83.1177241 C33.3299296,88.8797403 24.2654804,92.0077086 14.93284,91.9983126 C13.2841304,91.9951498 11.6370244,91.8954086 10,91.6996019 C19.4763693,97.775848 30.5026501,100.998857 41.76248,100.983853" id="Shape" fill="#1DA1F2" fill-rule="nonzero"></path>
    </g>
</svg>
